{"title":"Take This Waltz 2011 HDRiP AC3-5.1 XviD-AXED (Srkfan)","uid":7300451,"size":1485132386,"categoryP":"video","categoryS":"movies","magnet":"?xt=urn:btih:5b3ae80394ffcf775590aa839d42b5246d46015d&amp;dn=Take+This+Waltz+2011+HDRiP+AC3-5.1+XviD-AXED+%28Srkfan%29&amp;tr=udp%3A%2F%2Ftracker.openbittorrent.com%3A80&amp;tr=udp%3A%2F%2Fopen.demonii.com%3A1337&amp;tr=udp%3A%2F%2Ftracker.coppersurfer.tk%3A6969&amp;tr=udp%3A%2F%2Fexodus.desync.com%3A6969","seeders":1,"leechers":0,"uploader":"srkfan","files":6,"time":1338020772,"description":"Poster : http://i.imgur.com/BVuVF.jpg\n\nMDB: &lt;a href=&quot;\nhttp://www.imdb.com/title/tt1592281/&quot; rel=&quot;nofollow&quot; target=&quot;_NEW&quot;&gt;\nhttp://www.imdb.com/title/tt1592281/&lt;/a&gt;\n\nPLOT INFO:\nA happily married woman falls for the artist who lives across the street.\n\n\nMEDIAINFO:\nGeneral\nComplete name : Take.This.Waltz.2011.HDRiP.AC3-5.1.XviD-AXED.avi\nFormat : AVI\nFormat/Info : Audio Video Interleave\nFile size : 1.37 GiB\nDuration : 1h 56mn\nOverall bit rate : 1 686 Kbps\n\nVideo\nID : 0\nFormat : MPEG-4 Visual\nFormat profile : Advanced Simple@L5\nFormat settings, BVOP : 2\nFormat settings, QPel : No\nFormat settings, GMC : No warppoints\nFormat settings, Matrix : Default (H.263)\nMuxing mode : Packed bitstream\nCodec ID : XVID\nCodec ID/Hint : XviD\nDuration : 1h 56mn\nBit rate : 1 295 Kbps\nWidth : 720 pixels\nHeight : 400 pixels\nDisplay aspect ratio : 16:9\nFrame rate : 23.976 fps\nColor space : YUV\nChroma subsampling : 4:2:0\nBit depth : 8 bits\nScan type : Progressive\nCompression mode : Lossy\nBits/(Pixel*Frame) : 0.187\nStream size : 1.05 GiB (77%)\nWriting library : XviD 1.1.2 (UTC 2006-11-01)\n\nAudio\nID : 1\nFormat : AC-3\nFormat/Info : Audio Coding 3\nMode extension : CM (complete main)\nCodec ID : 2000\nDuration : 1h 56mn\nBit rate mode : Constant\nBit rate : 384 Kbps\nChannel(s) : 6 channels\nChannel positions : Front: L C R, Side: L R, LFE\nSampling rate : 48.0 KHz\nBit depth : 16 bits\nCompression mode : Lossy\nStream size : 320 MiB (23%)\nAlignment : Aligned on interleaves\nInterleave, duration : 64 ms (1.53 video frames)\nInterleave, preload duration : 192 ms\nTitle : takethiswaltz\n\n\n\nSOURCE:\n720p wmv Digital VOD Rental\n\n\nNOTES:\nHeres the new film starring Seth Rogen, Michelle Williams &amp; Sarah Silverman (full frontal nudity from\n\nWilliams &amp; Silverman too), and directed by Sarah Polley.The film hits theatres on June 7!\n\n\nSCREENS:\n\n\n[IMG]http://i.imgur.com/AAOMa.png[/IMG]\n[IMG]http://i.imgur.com/JbhM7.png[/IMG]\n[IMG]http://i.imgur.com/Pmrrh.png[/IMG]\n[IMG]http://i.imgur.com/ZSZks.png[/IMG]\n[IMG]http://i.imgur.com/70A5K.png[/IMG]\n       \n","torrent":{"xt":"urn:btih:5b3ae80394ffcf775590aa839d42b5246d46015d","amp;dn":"Take+This+Waltz+2011+HDRiP+AC3-5.1+XviD-AXED+%28Srkfan%29","amp;tr":["udp%3A%2F%2Ftracker.openbittorrent.com%3A80","udp%3A%2F%2Fopen.demonii.com%3A1337","udp%3A%2F%2Ftracker.coppersurfer.tk%3A6969","udp%3A%2F%2Fexodus.desync.com%3A6969"],"infoHash":"5b3ae80394ffcf775590aa839d42b5246d46015d","infoHashBuffer":{"type":"Buffer","data":[91,58,232,3,148,255,207,119,85,144,170,131,157,66,181,36,109,70,1,93]},"announce":[],"urlList":[]}}